<svg id="filled_outline" height="512" viewBox="0 0 512 512" width="512" xmlns="http://www.w3.org/2000/svg" data-name="filled outline"><path d="m352 74.667 32-10.667h24l16 32h-72z" fill="#91591c"/><path d="m288 96h136a64 64 0 0 1 64 64v24a0 0 0 0 1 0 0h-264a0 0 0 0 1 0 0v-24a64 64 0 0 1 64-64z" fill="#e6a565"/><path d="m288 96 32-32h32l16 32z" fill="#b1712c"/><path d="m224 360h200a64 64 0 0 1 64 64v24a0 0 0 0 1 0 0h-264a0 0 0 0 1 0 0v-88a0 0 0 0 1 0 0z" fill="#c7894c"/><path d="m224 272h200a64 64 0 0 1 64 64v24a0 0 0 0 1 0 0h-264a0 0 0 0 1 0 0v-88a0 0 0 0 1 0 0z" fill="#e6a565"/><path d="m288 184h136a64 64 0 0 1 64 64v24a0 0 0 0 1 0 0h-264a0 0 0 0 1 0 0v-24a64 64 0 0 1 64-64z" fill="#c7894c"/><circle cx="152" cy="320" fill="#f5b97d" r="128"/><path d="m72 368 24 24 24-16 8-24-32-8z" fill="#a36522"/><path d="m104 288 16 16 24-16v-24h-24z" fill="#b1712c"/><path d="m160 368-8 24 24 24 24-16-8-24z" fill="#b1712c"/><path d="m168 240 8 24 24 8 8-24-8-16z" fill="#a36522"/><path d="m216 344 16-8h16v24h-24z" fill="#91591c"/><path d="m129.94043 344.23877-32-8a8.00279 8.00279 0 0 0 -7.59717 2.10449l-24 24a7.99915 7.99915 0 0 0 0 11.31348l24 24a7.99922 7.99922 0 0 0 10.09424.99951l24-16a7.99892 7.99892 0 0 0 3.15186-4.12646l8-24a8.00035 8.00035 0 0 0 -5.64893-10.291zm-16.66211 26.62744-16.25879 10.83936-13.70605-13.70557 15.14062-15.14014 19.22461 4.80616z"/><path d="m114.34326 309.65674a7.99922 7.99922 0 0 0 10.09424.99951l24-16a7.99943 7.99943 0 0 0 3.5625-6.65625v-24a7.99977 7.99977 0 0 0 -8-8h-24a7.99943 7.99943 0 0 0 -6.65625 3.5625l-16 24a7.99946 7.99946 0 0 0 .99951 10.09424zm9.93799-37.65674h11.71875v11.71875l-14.98047 9.98682-6.7251-6.7251z"/><path d="m199.58936 373.47021a8.00044 8.00044 0 0 0 -5.64893-5.23144l-32-8a8.00073 8.00073 0 0 0 -9.52979 5.23144l-8 24a7.99941 7.99941 0 0 0 1.93262 8.18653l24 24a7.99922 7.99922 0 0 0 10.09424.99951l24-16a7.999 7.999 0 0 0 3.15186-9.186zm-22.56983 32.23536-15.8667-15.86621 4.09375-12.28125 20.55274 5.13769 4.67871 14.03711z"/><path d="m63.351 300h25.298v16h-25.298z" transform="matrix(.949 -.316 .316 .949 -93.498 39.839)"/><path d="m160 308.686h16v22.627h-16z" transform="matrix(.707 -.707 .707 .707 -177.068 212.52)"/><path d="m429.04224 88.19629-13.887-27.77393a7.99924 7.99924 0 0 0 -7.15524-4.42236h-24a7.99908 7.99908 0 0 0 -2.52979.41064l-20.84643 6.94874-1.46851-2.937a7.99924 7.99924 0 0 0 -7.15527-4.42238h-32a7.99877 7.99877 0 0 0 -5.65674 2.34326l-29.74292 29.74292a72.085 72.085 0 0 0 -68.60034 71.91382v24a7.99977 7.99977 0 0 0 8 8h18.76831a72.00943 72.00943 0 0 0 -14.34021 15.56494 135.22391 135.22391 0 0 0 -76.4281-23.56494c-74.99072 0-136 61.00928-136 136s61.00928 136 136 136a135.15724 135.15724 0 0 0 64-16.03052v8.03052a7.99977 7.99977 0 0 0 8 8h264a7.99977 7.99977 0 0 0 8-8v-24a71.88434 71.88434 0 0 0 -26.81494-56h18.81494a7.99977 7.99977 0 0 0 8-8v-24a71.88434 71.88434 0 0 0 -26.81494-56h18.81494a7.99977 7.99977 0 0 0 8-8v-24a71.88434 71.88434 0 0 0 -26.81494-56h18.81494a7.99977 7.99977 0 0 0 8-8v-24a72.07975 72.07975 0 0 0 -66.95776-71.80371zm-43.7439-16.19629h17.75732l8.00013 16h-38.1117l-5.09228-10.18457zm-61.98486 0h23.74218l8.00013 16h-47.74231zm-291.31348 248a120 120 0 1 1 120 120 120.13623 120.13623 0 0 1 -120-120zm448 104v16h-248v-10.0907a136.701 136.701 0 0 0 46.957-61.15576c2.97928-.48303 145.043-.75354 145.043-.75354a56.06353 56.06353 0 0 1 56 56zm0-88v16h-195.8125a136.1716 136.1716 0 0 0 -2.09424-71.66724c1.95789-.2052 141.90674-.33276 141.90674-.33276a56.06353 56.06353 0 0 1 56 56zm0-88v16h-204.071a136.731 136.731 0 0 0 -34.80518-46.644 56.0767 56.0767 0 0 1 46.87618-25.356h136a56.06353 56.06353 0 0 1 56 56zm0-72h-248v-16a56.06353 56.06353 0 0 1 56-56h136a56.06353 56.06353 0 0 1 56 56z"/><path d="m168.41064 266.52979a8.001 8.001 0 0 0 5.05957 5.05957l24 8a7.99212 7.99212 0 0 0 10.11915-5.05957l8-24a7.99839 7.99839 0 0 0 -.43409-6.10743l-8-16a8.00059 8.00059 0 0 0 -9.0957-4.18359l-32 8a8.00035 8.00035 0 0 0 -5.64893 10.291zm27.30372-25.21241 3.64843 7.29639-4.42236 13.26709-12.61572-4.20557-4.00342-12.00929z"/><path d="m200 300.686h16v22.627h-16z" transform="matrix(.707 -.707 .707 .707 -159.696 238.461)"/><path d="m116.686 216h22.627v16h-22.627z" transform="matrix(.707 -.707 .707 .707 -120.902 156.118)"/><path d="m256 360v-24a7.99977 7.99977 0 0 0 -8-8h-16a7.99583 7.99583 0 0 0 -3.57764.84473l-16 8a7.99926 7.99926 0 0 0 -3.57763 10.73291l8 16a7.99924 7.99924 0 0 0 7.15527 4.42236h24a7.99977 7.99977 0 0 0 8-8zm-16-8h-11.05566l-2.21143-4.42236 7.15576-3.57764h6.11133z"/><path d="m263.056 140h17.889v16h-17.889z" transform="matrix(.894 -.447 .447 .894 -37.472 137.267)"/><path d="m316 121.578h16v28.844h-16z" transform="matrix(.555 -.832 .832 .555 31.118 330.145)"/><path d="m383.056 140h17.889v16h-17.889z" transform="matrix(.894 -.447 .447 .894 -24.803 190.933)"/><path d="m428 121.578h16v28.844h-16z" transform="matrix(.555 -.832 .832 .555 80.992 423.335)"/><path d="m316 209.578h16v28.844h-16z" transform="matrix(.555 -.832 .832 .555 -42.102 369.331)"/><path d="m383.056 228h17.889v16h-17.889z" transform="matrix(.894 -.447 .447 .894 -64.158 200.223)"/><path d="m428 209.578h16v28.844h-16z" transform="matrix(.555 -.832 .832 .555 7.771 462.521)"/><path d="m316 297.578h16v28.844h-16z" transform="matrix(.555 -.832 .832 .555 -115.323 408.518)"/><path d="m383.056 316h17.889v16h-17.889z" transform="matrix(.894 -.447 .447 .894 -103.513 209.513)"/><path d="m428 297.578h16v28.844h-16z" transform="matrix(.555 -.832 .832 .555 -65.449 501.707)"/><path d="m263.056 404h17.889v16h-17.889z" transform="matrix(.894 -.447 .447 .894 -155.536 165.138)"/><path d="m316 385.578h16v28.844h-16z" transform="matrix(.555 -.832 .832 .555 -188.543 447.704)"/><path d="m383.056 404h17.889v16h-17.889z" transform="matrix(.894 -.447 .447 .894 -142.867 218.804)"/><path d="m428 385.578h16v28.844h-16z" transform="matrix(.555 -.832 .832 .555 -138.669 540.894)"/></svg>